<svg width="76" height="77" viewBox="0 0 76 77" fill="none" xmlns="http://www.w3.org/2000/svg">
<circle opacity="0.47" cx="38.0001" cy="38.4749" r="38" fill="#0F9503"/>
<circle cx="38.0001" cy="38.4748" r="30.1379" fill="#0C3A08"/>
<path d="M54.9874 38.8126C54.987 38.5862 54.8752 38.3721 54.685 38.2499C47.0435 33.1773 38.2352 29.1019 28.5036 26.1334C27.1112 25.7086 25.6644 26.1335 24.729 27.2434C23.8048 28.3401 23.6318 29.819 24.2763 31.1035L28.1773 38.8664L24.3075 46.6449C23.6681 47.932 23.847 49.4102 24.7757 50.5032C24.8441 50.5826 24.9135 50.6592 24.9867 50.732C25.9234 51.665 27.2641 51.9973 28.5547 51.5979C38.2733 48.5914 47.0661 44.4797 54.6872 39.3766C54.8751 39.2517 54.9879 39.0391 54.9874 38.8126ZM47.5699 39.505L32.2381 39.5358C32.0509 39.5361 31.8814 39.4607 31.7585 39.3383C31.6357 39.216 31.5596 39.0468 31.5592 38.8596C31.5584 38.4853 31.861 38.1815 32.2353 38.1807L47.5672 38.15C47.9415 38.1492 48.2453 38.4518 48.246 38.8261C48.2468 39.2005 47.9442 39.5043 47.5699 39.505Z" fill="white"/>
</svg>
