<svg width="59" height="59" viewBox="0 0 59 59" fill="none" xmlns="http://www.w3.org/2000/svg">
<path d="M49.9704 6.19179H47.0471V3.27513C47.0471 1.52513 45.8778 0.358459 44.1238 0.358459C42.3698 0.358459 41.2005 1.52513 41.2005 3.27513V6.19179H17.8142V3.27513C17.8142 1.52513 16.6449 0.358459 14.891 0.358459C13.137 0.358459 11.9677 1.52513 11.9677 3.27513V6.19179H9.04439C4.07481 6.19179 0.274536 9.98346 0.274536 14.9418V17.8585H58.7402V14.9418C58.7402 9.98346 54.94 6.19179 49.9704 6.19179ZM0.274536 49.9418C0.274536 54.9001 4.07481 58.6918 9.04439 58.6918H49.9704C54.94 58.6918 58.7402 54.9001 58.7402 49.9418V23.6918H0.274536V49.9418ZM44.1238 29.5251C45.8778 29.5251 47.0471 30.6918 47.0471 32.4418C47.0471 34.1918 45.8778 35.3585 44.1238 35.3585C42.3698 35.3585 41.2005 34.1918 41.2005 32.4418C41.2005 30.6918 42.3698 29.5251 44.1238 29.5251ZM44.1238 41.1918C45.8778 41.1918 47.0471 42.3585 47.0471 44.1085C47.0471 45.8585 45.8778 47.0251 44.1238 47.0251C42.3698 47.0251 41.2005 45.8585 41.2005 44.1085C41.2005 42.3585 42.3698 41.1918 44.1238 41.1918ZM29.5074 29.5251C31.2614 29.5251 32.4307 30.6918 32.4307 32.4418C32.4307 34.1918 31.2614 35.3585 29.5074 35.3585C27.7534 35.3585 26.5841 34.1918 26.5841 32.4418C26.5841 30.6918 27.7534 29.5251 29.5074 29.5251ZM29.5074 41.1918C31.2614 41.1918 32.4307 42.3585 32.4307 44.1085C32.4307 45.8585 31.2614 47.0251 29.5074 47.0251C27.7534 47.0251 26.5841 45.8585 26.5841 44.1085C26.5841 42.3585 27.7534 41.1918 29.5074 41.1918ZM14.891 29.5251C16.6449 29.5251 17.8142 30.6918 17.8142 32.4418C17.8142 34.1918 16.6449 35.3585 14.891 35.3585C13.137 35.3585 11.9677 34.1918 11.9677 32.4418C11.9677 30.6918 13.137 29.5251 14.891 29.5251ZM14.891 41.1918C16.6449 41.1918 17.8142 42.3585 17.8142 44.1085C17.8142 45.8585 16.6449 47.0251 14.891 47.0251C13.137 47.0251 11.9677 45.8585 11.9677 44.1085C11.9677 42.3585 13.137 41.1918 14.891 41.1918Z" fill="#0C3901"/>
</svg>
