<svg width="76" height="43" viewBox="0 0 76 43" fill="none" xmlns="http://www.w3.org/2000/svg">
<g clip-path="url(#clip0_1_806)">
<path fill-rule="evenodd" clip-rule="evenodd" d="M8.94883 0.525085H75.0469V36.3424H70.3752L70.7011 10.0614V9.74905C70.7011 8.63398 70.2479 7.56448 69.441 6.77545C68.6341 5.98642 67.5395 5.54236 66.3976 5.5408H8.93676V0.525085H8.94883ZM0.878967 9.0241H66.977V42.5251H0.878967V9.0241Z" fill="#0C3A08"/>
<path fill-rule="evenodd" clip-rule="evenodd" d="M56.2394 14.2284C56.2649 15.4772 56.7798 16.6689 57.6781 17.5581C58.5764 18.4474 59.7896 18.9664 61.068 19.0084V32.2638C60.3837 32.2644 59.7064 32.3985 59.0759 32.6583C58.4454 32.918 57.8745 33.2982 57.3965 33.7764C56.9186 34.2546 56.5433 34.8213 56.2928 35.4431C56.0423 36.0649 55.9215 36.7294 55.9376 37.3974H11.9969C12.0168 36.1073 11.5189 34.8608 10.6098 33.9246C9.70064 32.9884 8.45241 32.4367 7.13208 32.3876V19.1322C8.47951 19.1463 9.77766 18.638 10.7417 17.7187C11.7058 16.7993 12.2571 15.5441 12.2746 14.2284H56.2394Z" fill="white"/>
<path fill-rule="evenodd" clip-rule="evenodd" d="M25.1908 21.2598C26.1314 19.5354 27.5746 18.1221 29.3379 17.1986C31.1011 16.2751 33.1052 15.883 35.0967 16.0718C37.0882 16.2606 38.9776 17.0219 40.526 18.2593C42.0744 19.4967 43.2123 21.1547 43.7956 23.0236C44.379 24.8926 44.3817 26.8884 43.8034 28.7589C43.2251 30.6293 42.0918 32.2902 40.5467 33.5317C39.0017 34.7731 37.1144 35.5392 35.1234 35.7332C33.1324 35.9271 31.1273 35.5402 29.3615 34.6213C28.1887 34.0119 27.1505 33.1827 26.3061 32.1812C25.4616 31.1797 24.8276 30.0255 24.4403 28.7846C24.053 27.5437 23.9199 26.2404 24.0486 24.9493C24.1774 23.6581 24.5655 22.4044 25.1908 21.2598Z" fill="#0C3A08"/>
<path d="M34.2087 33.1655C34.0846 33.1671 33.9614 33.1444 33.8464 33.0988C33.7314 33.0531 33.627 32.9855 33.5392 32.8998C33.4515 32.8141 33.3822 32.7121 33.3354 32.5998C33.2887 32.4875 33.2655 32.3673 33.2671 32.2461V31.3502C32.7221 31.3202 32.1829 31.2252 31.6616 31.0673C31.2588 30.9366 30.8672 30.775 30.4906 30.584C30.3619 30.5298 30.2467 30.4491 30.1529 30.3474C30.0592 30.2456 29.989 30.1253 29.9474 29.9946C29.8758 29.7479 29.8885 29.4851 29.9836 29.2461C30.0778 29.0178 30.2567 28.8326 30.4846 28.7274C30.6197 28.6762 30.7651 28.656 30.9095 28.6682C31.0539 28.6805 31.1935 28.7249 31.3175 28.7982C31.6525 28.9638 32.0019 29.0999 32.3617 29.2048C32.8955 29.3524 33.4488 29.4219 34.0034 29.4111C34.5358 29.4564 35.0695 29.339 35.5305 29.0752C35.6713 28.9807 35.7862 28.8539 35.8651 28.7059C35.9441 28.5579 35.9846 28.3933 35.9832 28.2264C35.9857 28.0969 35.9589 27.9685 35.9047 27.8503C35.8504 27.7321 35.77 27.6271 35.6693 27.5428C35.3382 27.3071 34.9525 27.1553 34.5467 27.1007L32.8325 26.7353C30.9373 26.3424 29.9896 25.36 29.9896 23.7883C29.9816 23.3867 30.0566 22.9877 30.2101 22.615C30.3635 22.2423 30.5924 21.9037 30.8829 21.6194C31.532 21.0051 32.3696 20.6159 33.2671 20.5113V19.5565C33.265 19.4366 33.2874 19.3175 33.333 19.2062C33.3786 19.0949 33.4465 18.9936 33.5326 18.9082C33.6208 18.8212 33.7263 18.7528 33.8425 18.7072C33.9588 18.6616 34.0834 18.6397 34.2087 18.6429C34.3303 18.6402 34.4511 18.6623 34.5634 18.708C34.6757 18.7537 34.7769 18.8219 34.8605 18.9082C34.9467 18.9936 35.0146 19.0949 35.0602 19.2062C35.1058 19.3175 35.1282 19.4366 35.1261 19.5565V20.4701C35.5364 20.5229 35.9406 20.6137 36.3333 20.7412C36.7185 20.8636 37.0842 21.0382 37.4197 21.2598C37.5325 21.3233 37.6312 21.4082 37.7099 21.5094C37.7887 21.6106 37.846 21.7261 37.8784 21.8492C37.9336 22.0767 37.9081 22.3156 37.806 22.527C37.7572 22.6315 37.687 22.7251 37.5999 22.8021C37.5127 22.8791 37.4103 22.938 37.299 22.975C37.157 23.0152 37.0079 23.026 36.8614 23.0067C36.7148 22.9874 36.574 22.9385 36.4479 22.863C36.1542 22.7219 35.8469 22.6093 35.5305 22.527C35.1361 22.4296 34.7301 22.384 34.3233 22.3915C33.8227 22.3618 33.3255 22.4899 32.9049 22.7569C32.7454 22.8596 32.6148 22.9997 32.5251 23.1645C32.4355 23.3292 32.3897 23.5134 32.3919 23.6999C32.3883 23.8276 32.4135 23.9545 32.4656 24.0716C32.5178 24.1887 32.5956 24.2932 32.6937 24.3777C33.0096 24.6034 33.3756 24.7528 33.762 24.8139L35.4943 25.1793C36.3159 25.3082 37.0802 25.6711 37.6913 26.2225C37.9282 26.4703 38.1126 26.7613 38.2338 27.079C38.355 27.3966 38.4106 27.7345 38.3975 28.0732C38.4107 28.4702 38.3379 28.8654 38.184 29.2331C38.0301 29.6007 37.7984 29.9325 37.5042 30.2068C36.8546 30.7889 36.0408 31.1668 35.1684 31.2913V32.2461C35.1708 32.366 35.1485 32.4852 35.1029 32.5966C35.0573 32.7079 34.9892 32.8092 34.9028 32.8944C34.8195 32.9815 34.7185 33.0506 34.6062 33.0973C34.4939 33.144 34.3729 33.1672 34.2509 33.1655H34.2087Z" fill="white"/>
</g>
<defs>
<clipPath id="clip0_1_806">
<rect width="74.1679" height="42" fill="white" transform="translate(0.878967 0.525085)"/>
</clipPath>
</defs>
</svg>
