<svg width="75" height="75" viewBox="0 0 75 75" fill="none" xmlns="http://www.w3.org/2000/svg">
<path d="M62.8342 39.3177C61.842 39.3177 61.0377 38.5152 61.0377 37.5253C61.0377 36.5354 61.842 35.7328 62.8342 35.7328H64.7328C64.3268 29.5126 61.824 23.8547 57.9239 19.4561L56.6181 20.7592C56.2672 21.1092 55.8072 21.2844 55.3477 21.2844C54.888 21.2844 54.4285 21.1092 54.0776 20.7594C53.3759 20.0595 53.3759 18.9246 54.0774 18.2247L55.3742 16.9306C50.9895 13.1227 45.382 10.684 39.226 10.2838V12.1782C39.226 13.1681 38.4217 13.9706 37.4295 13.9706C36.4374 13.9706 35.633 13.1681 35.633 12.1782V10.2838C29.4541 10.6855 23.8281 13.1412 19.4364 16.9735L20.8464 18.3802C21.5479 19.0803 21.5479 20.215 20.8464 20.9151C20.4955 21.265 20.0355 21.4401 19.576 21.4401C19.1163 21.4401 18.6566 21.265 18.3057 20.9151L16.892 19.5047C13.0163 23.8963 10.5308 29.5358 10.1263 35.7328H12.2457C13.2378 35.7328 14.0422 36.5354 14.0422 37.5253C14.0422 38.5152 13.2378 39.3177 12.2457 39.3177H10.1263C10.5273 45.46 12.9716 51.0548 16.7881 55.4293L18.3054 53.9152C19.0072 53.215 20.1442 53.2153 20.8459 53.9149C21.5476 54.6148 21.5476 55.7497 20.8461 56.4496L19.3191 57.9732C23.7277 61.8646 29.3984 64.3616 35.6328 64.7668V62.6521C35.6328 61.6622 36.4371 60.8597 37.4293 60.8597C38.4214 60.8597 39.2258 61.6622 39.2258 62.6521V64.7668C45.4372 64.3631 51.0892 61.8832 55.4908 58.0163L54.0771 56.6058C53.3756 55.9057 53.3756 54.771 54.0771 54.0709C54.7788 53.3713 55.9161 53.3713 56.6178 54.0709L58.0277 55.4776C61.8687 51.0959 64.3303 45.4826 64.7326 39.3177H62.8342ZM49.5059 39.3177H37.4295C36.4374 39.3177 35.633 38.5152 35.633 37.5253V20.1864C35.633 19.1965 36.4374 18.3939 37.4295 18.3939C38.4217 18.3939 39.226 19.1965 39.226 20.1864V35.7331H49.5059C50.4981 35.7331 51.3024 36.5356 51.3024 37.5255C51.3024 38.5154 50.4981 39.3177 49.5059 39.3177Z" fill="#0C3901"/>
<path d="M37.4299 0.525269C16.9818 0.525269 0.345978 17.1234 0.345978 37.5253C0.345978 57.9271 16.9818 74.5253 37.4299 74.5253C57.8781 74.5253 74.5139 57.9271 74.5139 37.5253C74.5139 17.1234 57.8781 0.525269 37.4299 0.525269ZM37.4299 68.4119C20.3603 68.4119 6.4732 54.5562 6.4732 37.5253C6.4732 20.4943 20.3603 6.63862 37.4299 6.63862C54.4996 6.63862 68.3867 20.4943 68.3867 37.5253C68.3867 54.5562 54.4996 68.4119 37.4299 68.4119Z" fill="#0C3901"/>
</svg>
