<svg width="86" height="85" viewBox="0 0 86 85" fill="none" xmlns="http://www.w3.org/2000/svg">
<path d="M53.303 33.4321C49.9911 33.4321 45.3453 37.4515 42.996 39.7237C40.637 37.4514 35.9915 33.4321 32.6799 33.4321C27.9075 33.4321 24.4415 37.2524 24.4415 42.5211C24.4415 47.7898 27.8985 51.6191 32.6709 51.6191C35.9827 51.6191 40.6285 47.5905 42.9869 45.3275C45.3371 47.5906 49.9823 51.6191 53.2939 51.6191C58.0758 51.6191 61.5506 47.7897 61.5506 42.5211C61.5506 37.2525 58.0755 33.4321 53.303 33.4321ZM32.6792 48.0707C29.4492 48.0707 27.9976 45.2822 27.9976 42.5212C27.9976 39.7602 29.4493 36.9718 32.6795 36.9718C34.3851 36.9718 38.1957 40.0136 40.7726 42.5212C38.1957 45.0289 34.3851 48.0707 32.6795 48.0707H32.6792ZM53.303 48.0707C51.5882 48.0707 47.7864 45.0289 45.2008 42.5212C47.7865 40.0136 51.5883 36.9718 53.303 36.9718C56.5421 36.9718 57.9938 39.7599 57.9938 42.5212C57.9935 45.2822 56.5418 48.0707 53.3028 48.0707H53.303Z" fill="#0C3A08"/>
<path d="M42.9961 0.525208C19.7868 0.525208 0.905334 19.364 0.905334 42.5207C0.905334 65.6865 19.7868 84.5252 42.9961 84.5252C66.2054 84.5252 85.0869 65.6865 85.0869 42.5207C85.0869 19.364 66.2054 0.525208 42.9961 0.525208ZM62.4854 75.5004L60.0808 71.3453C59.9628 71.1642 59.745 71.1279 59.5909 71.2093C59.4186 71.3091 59.3642 71.5265 59.4546 71.6984L61.8592 75.8447C56.7509 78.7322 50.9808 80.4977 44.7745 80.7962V71.6619C44.7745 70.6843 43.9851 69.8876 42.9961 69.8876C42.0072 69.8876 41.2178 70.6752 41.2178 71.6619V80.7962C35.0115 80.4974 29.2412 78.7319 24.1331 75.8441L26.5284 71.6981C26.6281 71.5262 26.5648 71.3088 26.3924 71.209C26.2198 71.1276 26.0113 71.1639 25.9114 71.345L23.498 75.5001C17.8995 72.1869 13.2629 67.5612 9.94253 61.9663L14.1163 59.5672C14.2795 59.4766 14.343 59.2595 14.2434 59.0872C14.1435 58.9061 13.9259 58.879 13.7535 58.9515L9.59786 61.3414C6.70346 56.2539 4.93398 50.4876 4.63479 44.2954H13.7989C14.7787 44.2954 15.5772 43.5078 15.5772 42.5211C15.5772 41.5344 14.7878 40.7468 13.7989 40.7468H4.63479C4.93399 34.5546 6.70346 28.7882 9.60671 23.7008L13.7624 26.0907C13.8168 26.1178 13.8712 26.1358 13.9347 26.1358C14.0618 26.1358 14.1798 26.0724 14.2431 25.9547C14.343 25.7919 14.2794 25.5748 14.1162 25.475L9.94251 23.0759C13.2544 17.4905 17.9002 12.8557 23.498 9.55117L25.9025 13.7062C25.9661 13.8239 26.0929 13.8874 26.2109 13.8874C26.2744 13.8874 26.3288 13.8782 26.3924 13.8422C26.5648 13.7337 26.628 13.5163 26.5284 13.3534L24.1331 9.2072C29.2322 6.31052 35.0115 4.54505 41.2178 4.24654V13.3899C41.2178 14.3675 42.0072 15.1642 42.9961 15.1642C43.985 15.1642 44.7745 14.3766 44.7745 13.3899V4.24654C50.9807 4.54506 56.7511 6.31052 61.8592 9.2072L59.4546 13.3534C59.3641 13.5163 59.4185 13.7337 59.5909 13.8334C59.6453 13.8697 59.7089 13.8785 59.7724 13.8785C59.8996 13.8785 60.0084 13.8151 60.0808 13.6974L62.4942 9.54232C68.0924 12.8467 72.7376 17.482 76.0406 23.0671L71.8761 25.475C71.7037 25.5747 71.6401 25.7918 71.7401 25.955C71.8128 26.0727 71.9305 26.1361 72.0484 26.1361C72.112 26.1361 72.1756 26.1269 72.23 26.091L76.3856 23.701C79.28 28.7883 81.0492 34.5548 81.3395 40.7471H72.1936C71.2046 40.7471 70.4061 41.5438 70.4061 42.5214C70.4061 43.4989 71.2046 44.2957 72.1844 44.2957H81.3394C81.0491 50.4879 79.2799 56.2543 76.3855 61.3417L72.2299 58.9518C72.0575 58.8795 71.8396 58.9155 71.74 59.0875C71.6401 59.2598 71.7036 59.4769 71.876 59.5766L76.0497 61.9757C72.729 67.5612 68.0928 72.1869 62.4852 75.5005L62.4854 75.5004Z" fill="#0C3A08"/>
</svg>
