<svg width="54" height="76" viewBox="0 0 54 76" fill="none" xmlns="http://www.w3.org/2000/svg">
<path d="M26.8568 0.877029C26.2055 1.33563 10.8859 12.2545 10.9606 26.3054L13.5678 54.6729C13.7518 56.7493 15.5236 58.35 17.5948 58.3188L38.224 58.1796C39.0319 58.1718 39.7902 57.9151 40.423 57.4852C41.397 56.8233 42.0753 55.7468 42.1742 54.5139L44.5193 26.1027C44.5235 26.0645 44.526 26.0269 44.5254 25.9888C44.5019 20.8439 42.3718 16.1505 39.6772 12.2377C35.0658 5.54226 28.7751 1.15496 28.3604 0.871497C27.905 0.561078 27.3164 0.62253 26.8568 0.877029ZM23.8695 20.57C25.0194 19.785 26.4105 19.325 27.9141 19.324C31.9239 19.3212 35.2107 22.5744 35.2557 26.5919C35.3006 30.6095 32.0879 33.8684 28.0781 33.8712C24.0684 33.874 20.7815 30.6208 20.7366 26.6033C20.7085 24.0923 21.9529 21.8782 23.8695 20.57ZM9.71134 41.4459C4.16654 45.4222 1.29512 50.7307 0.963786 57.6357C0.945863 58.1456 1.2123 58.605 1.64082 58.8598C2.0802 59.1072 2.62625 59.0903 3.03936 58.8096L4.94181 57.517C6.46378 56.4828 8.53554 55.2994 10.9076 54.5548L9.71134 41.4459ZM45.8416 41.8324C45.2513 48.801 44.679 55.5169 44.5971 55.9097C47.5506 57.0662 49.9057 58.7427 51.4934 59.8798L51.7044 60.025C52.1003 60.3019 52.613 60.356 53.0418 60.1449C53.1037 60.1189 53.1583 60.0815 53.2126 60.0445C53.5496 59.8155 53.7713 59.4391 53.7907 59.0245C54.0095 54.1228 52.9038 50.2666 50.0735 46.12C48.8381 44.31 47.3259 42.9113 45.8416 41.8324ZM19.4936 60.9458C19.8069 66.4172 23.5527 75.7757 28.5981 75.8191C29.5193 75.8259 30.4134 75.5391 31.2679 74.9585C31.6364 74.7081 31.9972 74.4014 32.3502 74.0443C35.2466 71.1048 37.1282 64.9397 37.138 60.8368L33.8506 60.8564C33.1451 64.3433 31.1426 68.2663 28.3769 68.2732C25.6052 68.2714 23.4635 64.3954 22.6565 60.9261L19.4936 60.9458Z" fill="#0C3A08"/>
</svg>
